<svg width="239" height="107" viewBox="0 0 239 107" fill="none" xmlns="http://www.w3.org/2000/svg">
<g clip-path="url(#clip0)">
<path d="M195.629 0H62.3629C56.2874 0.00253287 50.3639 2.0453 45.5861 5.75849C31.9852 1.2905 15.0665 6.89322 10.2976 24.8146C-0.350416 31.1151 -3.45662 48.9199 4.37669 58.4955C4.30698 59.5403 4.28037 60.5889 4.3336 61.6388C4.82658 71.2232 10.3686 78.9636 19.9939 83.5861C17.5163 90.8643 18.4629 99.7446 22.5108 106.198C23.3573 107.547 25.4281 107.11 25.6562 105.536C28.2188 87.8844 41.8564 86.5648 62.3705 86.5648H195.628C219.542 86.5648 238.998 67.1478 238.998 43.283C238.998 19.4183 219.544 0 195.629 0ZM195.629 83.1467H62.3629C58.7054 83.1467 54.9453 83.1492 51.2586 83.3569C51.2891 80.2617 50.739 74.3892 46.7166 69.7883C45.3694 68.247 43.7447 67.0047 41.8805 66.032C42.3266 64.6769 43.324 62.4125 45.2287 61.3728C45.9106 61.0005 46.2895 60.2507 46.126 59.4921C45.8865 58.384 44.6483 57.8027 43.6459 58.3359C40.8134 59.8429 39.3775 62.8039 38.7122 64.7137C36.744 64.0982 34.5617 63.7258 32.1728 63.603C31.1906 63.5523 30.3593 64.3325 30.3593 65.314C30.3593 66.222 31.0753 66.9679 31.984 67.0148C37.3688 67.2909 41.4458 68.9689 44.1186 72.0134C47.5327 75.9026 47.8749 81.1482 47.8229 83.6165C37.1103 84.6714 27.5268 88.0997 23.6501 99.2481C23.5626 99.5002 23.2002 99.504 23.1229 99.2494C21.5717 94.0735 21.7263 88.1199 23.7426 83.3594C24.1089 82.4932 23.7071 81.4952 22.8415 81.1242C13.5597 77.145 8.20272 70.1631 7.75536 61.4627C7.28645 52.376 12.5078 42.9436 20.4514 38.5263C27.6624 34.5142 35.9355 35.0626 43.8981 40.0321C44.6699 40.5133 45.685 40.3006 46.202 39.5534C46.7609 38.7466 46.5227 37.6385 45.69 37.1193C36.6363 31.4672 27.1403 30.8935 18.7836 35.54C12.0262 39.3001 7.10903 45.9742 5.19157 53.4208C1.09053 44.8851 4.28164 32.1599 12.4558 27.4538C13.0223 27.1283 13.3949 26.5572 13.5521 25.924C20.3462 -1.59824 61.2451 3.49157 60.6381 32.0561C60.5544 34.2749 64.0218 34.3445 64.0611 32.1358C64.2119 19.9831 57.8208 11.4879 49.3463 7.29088C53.204 4.7884 57.7334 3.41558 62.3718 3.41558H195.629C217.655 3.41558 235.575 21.2989 235.575 43.2805C235.575 65.2633 217.655 83.1467 195.629 83.1467Z" fill="white"/>
<path d="M77.7755 46.5173H81.9639V65.0833H77.7755V46.5173Z" fill="white"/>
<path d="M85.3198 58.0383C85.3198 57.0201 85.4845 56.0601 85.8166 55.1584C86.1473 54.2567 86.6264 53.4715 87.2537 52.8003C87.8797 52.1303 88.6401 51.5997 89.5361 51.2058C90.4309 50.8132 91.4511 50.6169 92.5954 50.6169C93.347 50.6169 94.0364 50.6841 94.6624 50.8183C95.2885 50.9513 95.8981 51.1438 96.4874 51.3945L95.6548 54.5822C95.2784 54.4391 94.8665 54.3149 94.4204 54.2073C93.9717 54.0996 93.4712 54.0465 92.9173 54.0465C91.7362 54.0465 90.8541 54.4137 90.2724 55.1457C89.6907 55.8777 89.4005 56.8428 89.4005 58.0395C89.4005 59.3072 89.673 60.29 90.2192 60.9865C90.7654 61.6831 91.7185 62.0313 93.0783 62.0313C93.5611 62.0313 94.0807 61.987 94.6358 61.8984C95.1896 61.8085 95.7004 61.6653 96.1667 61.469L96.7307 64.7377C96.2656 64.934 95.6839 65.1037 94.9856 65.2468C94.2873 65.3899 93.5181 65.4609 92.6766 65.4609C91.389 65.4609 90.2788 65.2684 89.3473 64.8846C88.4171 64.5009 87.6516 63.9779 87.0522 63.318C86.4515 62.6582 86.0143 61.8756 85.7367 60.9726C85.4579 60.0709 85.3198 59.0919 85.3198 58.0383Z" fill="white"/>
<path d="M111.951 58.0116C111.951 59.1197 111.79 60.1329 111.468 61.0523C111.146 61.973 110.68 62.7582 110.073 63.4104C109.465 64.0626 108.735 64.5666 107.884 64.9238C107.034 65.2809 106.081 65.4595 105.025 65.4595C103.987 65.4595 103.043 65.2809 102.193 64.9238C101.343 64.5666 100.614 64.0626 100.005 63.4104C99.3972 62.7582 98.9219 61.973 98.5823 61.0523C98.2426 60.1329 98.0728 59.1197 98.0728 58.0116C98.0728 56.9034 98.2477 55.8954 98.5962 54.9835C98.9447 54.0717 99.4288 53.2954 100.046 52.652C100.663 52.0087 101.397 51.5097 102.247 51.1513C103.098 50.7942 104.024 50.6156 105.025 50.6156C106.046 50.6156 106.981 50.7942 107.831 51.1513C108.682 51.5084 109.41 52.0087 110.02 52.652C110.628 53.2954 111.103 54.0717 111.443 54.9835C111.78 55.8954 111.951 56.9034 111.951 58.0116ZM107.87 58.0116C107.87 56.7793 107.623 55.8105 107.132 55.1038C106.639 54.3984 105.938 54.0451 105.024 54.0451C104.112 54.0451 103.404 54.3984 102.904 55.1038C102.403 55.8092 102.152 56.7781 102.152 58.0116C102.152 59.2438 102.403 60.2215 102.904 60.9459C103.404 61.669 104.112 62.03 105.024 62.03C105.937 62.03 106.639 61.669 107.132 60.9459C107.623 60.2215 107.87 59.2438 107.87 58.0116Z" fill="white"/>
<path d="M115.038 51.4743C115.719 51.278 116.596 51.0956 117.669 50.9247C118.743 50.755 119.871 50.6714 121.052 50.6714C122.251 50.6714 123.248 50.8284 124.045 51.14C124.841 51.4528 125.472 51.8948 125.939 52.4659C126.404 53.0371 126.734 53.7159 126.932 54.5011C127.129 55.2876 127.227 56.1627 127.227 57.1264V65.0834H123.228V57.6102C123.228 56.3235 123.058 55.4129 122.718 54.8772C122.377 54.3415 121.743 54.073 120.812 54.073C120.526 54.073 120.222 54.087 119.9 54.1136C119.578 54.1402 119.292 54.1718 119.041 54.2073V65.0847H115.041V51.4743H115.038Z" fill="white"/>
<path d="M129.642 55.2787H137.427V58.8956H129.642V55.2787Z" fill="white"/>
<path d="M147.737 57.6103C147.737 56.3236 147.572 55.413 147.24 54.8773C146.909 54.3416 146.34 54.0731 145.535 54.0731C145.284 54.0731 145.026 54.087 144.757 54.1136C144.488 54.1402 144.229 54.1719 143.979 54.2073V65.0848H139.979V51.4744C140.319 51.3857 140.718 51.292 141.173 51.1932C141.629 51.0944 142.114 51.0058 142.623 50.9247C143.134 50.8449 143.657 50.7816 144.194 50.7373C144.731 50.693 145.259 50.6702 145.779 50.6702C146.799 50.6702 147.626 50.7993 148.261 51.0577C148.897 51.3173 149.421 51.6251 149.833 51.9822C150.406 51.5719 151.062 51.2502 151.806 51.0184C152.549 50.7854 153.233 50.6702 153.86 50.6702C154.988 50.6702 155.915 50.8272 156.638 51.1387C157.362 51.4503 157.94 51.8935 158.369 52.4647C158.799 53.0359 159.094 53.7147 159.255 54.4999C159.416 55.2863 159.496 56.1614 159.496 57.1252V65.0823H155.496V57.6103C155.496 56.3236 155.33 55.413 155 54.8773C154.669 54.3416 154.1 54.0731 153.295 54.0731C153.081 54.0731 152.781 54.1263 152.395 54.2339C152.01 54.3416 151.693 54.4746 151.442 54.6354C151.568 55.047 151.649 55.4788 151.684 55.9348C151.72 56.3907 151.738 56.877 151.738 57.395V65.0835H147.737V57.6103Z" fill="white"/>
<path d="M162.448 58.1459C162.448 56.8959 162.64 55.8005 163.024 54.8633C163.408 53.9249 163.914 53.1448 164.541 52.5191C165.167 51.8935 165.888 51.4211 166.702 51.0982C167.516 50.7765 168.353 50.6169 169.213 50.6169C171.216 50.6169 172.8 51.2286 173.964 52.452C175.127 53.6754 175.709 55.4763 175.709 57.8508C175.709 58.0839 175.7 58.3384 175.682 58.6145C175.665 58.8918 175.647 59.1363 175.629 59.3503H166.555C166.644 60.1722 167.029 60.8232 167.71 61.3057C168.389 61.7882 169.303 62.0288 170.447 62.0288C171.181 62.0288 171.901 61.9617 172.608 61.8274C173.315 61.6945 173.892 61.5286 174.339 61.3323L174.876 64.5744C174.661 64.682 174.374 64.7896 174.017 64.896C173.658 65.0024 173.26 65.0961 172.823 65.1772C172.385 65.2582 171.915 65.3241 171.414 65.3785C170.913 65.4317 170.411 65.4596 169.911 65.4596C168.64 65.4596 167.535 65.2722 166.596 64.8973C165.656 64.5224 164.878 64.0083 164.26 63.356C163.643 62.7038 163.186 61.9313 162.891 61.0385C162.596 60.1456 162.448 59.1819 162.448 58.1459ZM171.845 56.6186C171.826 56.2792 171.768 55.9486 171.67 55.627C171.571 55.3053 171.419 55.0203 171.214 54.7696C171.007 54.5201 170.747 54.3137 170.436 54.1528C170.123 53.992 169.733 53.9122 169.268 53.9122C168.82 53.9122 168.436 53.9882 168.114 54.1402C167.792 54.2921 167.523 54.4935 167.308 54.743C167.092 54.9925 166.928 55.2825 166.811 55.613C166.694 55.9436 166.609 56.2792 166.556 56.6173H171.845V56.6186Z" fill="white"/>
<path d="M191.254 64.6288C190.895 64.7364 190.483 64.839 190.018 64.9365C189.552 65.0353 189.065 65.1189 188.554 65.1911C188.045 65.262 187.525 65.3202 186.998 65.3646C186.47 65.4089 185.964 65.4317 185.481 65.4317C184.318 65.4317 183.28 65.262 182.367 64.9226C181.455 64.5832 180.684 64.0969 180.059 63.4624C179.432 62.8292 178.954 62.0604 178.622 61.1587C178.292 60.257 178.126 59.2439 178.126 58.118C178.126 56.9757 178.269 55.9435 178.555 55.0228C178.842 54.1034 179.253 53.322 179.79 52.6787C180.327 52.0353 180.985 51.5452 181.763 51.2058C182.541 50.8664 183.432 50.6967 184.434 50.6967C184.988 50.6967 185.486 50.7499 185.923 50.8575C186.362 50.9652 186.805 51.1171 187.253 51.3134V44.9369L191.254 44.2936V64.6288ZM182.206 57.9306C182.206 59.1628 182.484 60.1544 183.039 60.9042C183.593 61.6539 184.417 62.03 185.509 62.03C185.868 62.03 186.197 62.0174 186.503 61.9908C186.807 61.9642 187.058 61.9325 187.254 61.8971V54.6366C187.003 54.4757 186.677 54.3415 186.274 54.2351C185.871 54.1275 185.465 54.0743 185.053 54.0743C183.156 54.073 182.206 55.3584 182.206 57.9306Z" fill="white"/>
<path d="M80.8955 30.9581C81.2415 31.2025 81.6141 31.5115 82.0158 31.8839C82.4176 32.2562 82.8104 32.6589 83.1957 33.0933C83.5797 33.5264 83.9396 33.9684 84.2742 34.4193C84.6088 34.8701 84.8927 35.2906 85.1271 35.6794H83.287C83.0424 35.3007 82.7547 34.9144 82.4264 34.5193C82.0982 34.1255 81.7548 33.7443 81.3986 33.377C81.0425 33.0097 80.6801 32.6716 80.3125 32.36C79.945 32.0485 79.599 31.7863 79.2759 31.5761V35.6806H77.7209V27.0043H79.2759V30.7251C79.5433 30.4692 79.8487 30.1716 80.196 29.8322C80.5407 29.4928 80.8892 29.1484 81.2402 28.7976C81.5913 28.4467 81.917 28.1137 82.2173 27.7971C82.519 27.4805 82.7636 27.2158 82.9536 27.0043H84.7583C84.5137 27.2715 84.226 27.5742 83.8978 27.9136C83.5683 28.253 83.2299 28.6 82.8776 28.9571C82.5266 29.313 82.178 29.6651 81.8333 30.0159C81.4874 30.3654 81.1743 30.6795 80.8955 30.9581Z" fill="white"/>
<path d="M90.0747 28.3048C90.0747 28.6708 90.0659 29.0634 90.0494 29.4813C90.0317 29.898 90.0012 30.3159 89.9569 30.7326C89.9125 31.1493 89.8517 31.5608 89.7731 31.9674C89.6945 32.3739 89.5944 32.7538 89.4715 33.1097C89.3486 33.4668 89.1952 33.7999 89.0115 34.1102C88.8264 34.423 88.6021 34.6978 88.3334 34.9359C88.066 35.1765 87.7543 35.3754 87.3969 35.5375C87.0395 35.6983 86.6213 35.8009 86.1435 35.8465L85.9255 34.5446C86.4718 34.4331 86.9039 34.228 87.222 33.9278C87.5388 33.6277 87.7923 33.2604 87.9824 32.826C88.1497 32.4474 88.2713 32.0206 88.3499 31.5418C88.4272 31.0631 88.483 30.5654 88.5159 30.0474C88.5489 29.5307 88.5692 29.0102 88.5742 28.4872C88.5793 27.9642 88.5818 27.469 88.5818 27.0029H94.3672V35.6793H92.8122V28.3048H90.0747Z" fill="white"/>
<path d="M96.0261 37.2978C96.149 37.3536 96.3074 37.4067 96.5026 37.4561C96.6965 37.5055 96.8891 37.5309 97.0792 37.5309C97.6913 37.5309 98.1704 37.3941 98.5164 37.1218C98.8623 36.8495 99.1741 36.4075 99.4529 35.7946C98.7495 34.461 98.0956 33.0451 97.4886 31.5482C96.8802 30.0526 96.3759 28.5366 95.9754 27.0017H97.647C97.7699 27.502 97.9169 28.0415 98.0905 28.6202C98.2629 29.199 98.4555 29.7942 98.6672 30.4059C98.8788 31.0176 99.1069 31.6293 99.3528 32.241C99.5974 32.8526 99.8534 33.4428 100.122 34.0102C100.545 32.8425 100.913 31.685 101.226 30.5401C101.538 29.3953 101.834 28.215 102.112 27.003H103.716C103.316 28.6379 102.87 30.2096 102.378 31.7166C101.887 33.2237 101.359 34.6332 100.79 35.9465C100.567 36.4468 100.336 36.8786 100.097 37.2396C99.8572 37.6018 99.5923 37.8981 99.3021 38.1324C99.0131 38.3667 98.6862 38.5389 98.325 38.6491C97.9625 38.7606 97.5532 38.8163 97.0957 38.8163C96.9728 38.8163 96.8448 38.8087 96.7117 38.791C96.5774 38.7745 96.4468 38.7517 96.3188 38.7238C96.1908 38.6972 96.073 38.6656 95.9678 38.6327C95.8613 38.5997 95.7865 38.5719 95.7422 38.5491L96.0261 37.2978Z" fill="white"/>
<path d="M106.759 28.0047C107.104 27.7261 107.508 27.5133 107.971 27.3626C108.433 27.2132 108.875 27.1385 109.299 27.1385C110.547 27.1385 111.492 27.5197 112.132 28.2808C112.774 29.0432 113.094 30.1019 113.094 31.4583C113.094 32.0371 113.017 32.593 112.86 33.1275C112.704 33.6606 112.462 34.1343 112.132 34.5459C111.804 34.9575 111.389 35.2855 110.887 35.5312C110.386 35.7756 109.789 35.8972 109.097 35.8972C108.306 35.8972 107.649 35.7528 107.124 35.464C106.601 35.174 106.185 34.7802 105.878 34.2787C105.572 33.7784 105.357 33.1946 105.234 32.5272C105.113 31.8598 105.051 31.1544 105.051 30.4084C105.051 29.4409 105.12 28.5392 105.26 27.7046C105.399 26.87 105.653 26.1367 106.02 25.5022C106.388 24.869 106.898 24.3435 107.551 23.9255C108.202 23.5089 109.041 23.2277 110.067 23.0833C110.367 23.039 110.632 23.0036 110.861 22.9744C111.089 22.9466 111.29 22.9212 111.463 22.8997C111.636 22.8769 111.795 22.8516 111.94 22.8237C112.084 22.7971 112.235 22.7655 112.391 22.7325L112.558 24.1332C112.48 24.156 112.399 24.1725 112.316 24.1839C112.233 24.1953 112.116 24.2117 111.965 24.2333C111.814 24.2561 111.613 24.2839 111.363 24.3169C111.112 24.3498 110.787 24.389 110.386 24.4334C109.282 24.5562 108.436 24.8906 107.845 25.4339C107.255 25.9797 106.892 26.8358 106.759 28.0047ZM106.659 30.6566C106.659 31.1797 106.694 31.6749 106.768 32.1409C106.84 32.6082 106.968 33.0198 107.152 33.3757C107.336 33.7328 107.583 34.0127 107.896 34.2191C108.208 34.4256 108.609 34.5281 109.1 34.5281C109.524 34.5281 109.885 34.4471 110.187 34.2863C110.489 34.1241 110.733 33.9051 110.922 33.6264C111.112 33.3478 111.252 33.0236 111.34 32.6513C111.43 32.2789 111.475 31.8813 111.475 31.4583C111.475 31.0809 111.438 30.7136 111.366 30.3565C111.293 30.0006 111.162 29.684 110.973 29.4067C110.783 29.1281 110.529 28.9052 110.212 28.7393C109.894 28.5721 109.496 28.4898 109.017 28.4898C108.548 28.4898 108.1 28.5898 107.671 28.7899C107.242 28.99 106.911 29.2344 106.677 29.5232C106.665 29.646 106.66 29.8183 106.66 30.0399C106.659 30.2628 106.659 30.4679 106.659 30.6566Z" fill="white"/>
<path d="M126.286 35.6793H124.731V31.842H120.719V35.6793H119.164V27.0029H120.719V30.5401H124.731V27.0029H126.286V35.6793Z" fill="white"/>
<path d="M128.476 31.357C128.476 30.5895 128.587 29.9195 128.809 29.3471C129.032 28.7734 129.327 28.2998 129.695 27.9211C130.062 27.5424 130.486 27.26 130.966 27.0701C131.445 26.8801 131.936 26.7864 132.437 26.7864C133.607 26.7864 134.504 27.1498 135.129 27.878C135.753 28.6075 136.066 29.7169 136.066 31.2062C136.066 31.2734 136.066 31.3595 136.066 31.4659C136.066 31.571 136.059 31.6685 136.048 31.7571H130.097C130.164 32.6576 130.425 33.3427 130.882 33.81C131.339 34.2761 132.052 34.5104 133.023 34.5104C133.568 34.5104 134.029 34.4635 134.402 34.3685C134.774 34.2736 135.056 34.1824 135.246 34.0937L135.463 35.3956C135.274 35.4957 134.942 35.6021 134.469 35.7122C133.995 35.8237 133.456 35.8794 132.856 35.8794C132.098 35.8794 131.443 35.7642 130.891 35.5375C130.34 35.3095 129.885 34.9954 129.529 34.594C129.173 34.1938 128.908 33.7189 128.734 33.168C128.562 32.6171 128.476 32.0142 128.476 31.357ZM134.445 30.5072C134.456 29.8056 134.28 29.2306 133.919 28.781C133.556 28.3302 133.058 28.1047 132.422 28.1047C132.066 28.1047 131.75 28.1744 131.478 28.3137C131.206 28.453 130.974 28.6328 130.785 28.8557C130.595 29.0774 130.448 29.3345 130.341 29.6232C130.236 29.9132 130.166 30.207 130.132 30.5072H134.445Z" fill="white"/>
<path d="M141.449 35.8288C140.792 35.8288 140.185 35.7984 139.627 35.7376C139.069 35.6768 138.63 35.6072 138.306 35.5286V27.0853C138.63 27.008 139.069 26.9384 139.627 26.8763C140.185 26.8156 140.792 26.7852 141.449 26.7852C141.906 26.7852 142.352 26.8244 142.788 26.9017C143.222 26.9789 143.606 27.1106 143.941 27.293C144.275 27.4766 144.545 27.7274 144.752 28.044C144.959 28.3606 145.061 28.7532 145.061 29.2205C145.061 29.6435 144.955 30.0044 144.743 30.3059C144.531 30.606 144.248 30.839 143.891 31.0062C144.37 31.1734 144.752 31.4203 145.036 31.7496C145.32 32.0776 145.462 32.5361 145.462 33.1262C145.462 33.6493 145.359 34.0824 145.152 34.4281C144.946 34.7726 144.662 35.0512 144.301 35.2627C143.938 35.4742 143.513 35.6211 143.022 35.7047C142.53 35.787 142.006 35.8288 141.449 35.8288ZM141.482 30.5566C141.784 30.5566 142.059 30.5376 142.31 30.4984C142.561 30.4591 142.777 30.3894 142.962 30.2894C143.146 30.1893 143.291 30.0564 143.397 29.8892C143.502 29.722 143.557 29.5105 143.557 29.2547C143.557 28.9888 143.49 28.7773 143.357 28.6215C143.222 28.4657 143.047 28.3467 142.831 28.2618C142.614 28.1782 142.368 28.1238 142.096 28.0959C141.822 28.0681 141.546 28.0541 141.268 28.0541C141.011 28.0541 140.752 28.0605 140.49 28.0719C140.228 28.0833 140.008 28.0947 139.83 28.1048V30.5566H141.482ZM139.827 34.5104C139.894 34.5218 139.988 34.5332 140.111 34.5434C140.234 34.5548 140.373 34.5636 140.529 34.5687C140.685 34.5738 140.85 34.5801 141.023 34.5851C141.196 34.5915 141.359 34.5927 141.516 34.5927C141.84 34.5927 142.149 34.5712 142.444 34.5269C142.739 34.4813 142.995 34.404 143.213 34.2926C143.431 34.1812 143.604 34.033 143.732 33.8506C143.86 33.667 143.924 33.4314 143.924 33.1414C143.924 32.8628 143.866 32.6336 143.749 32.4487C143.632 32.265 143.473 32.1181 143.273 32.0067C143.073 31.8952 142.836 31.818 142.562 31.7737C142.288 31.7281 141.997 31.7065 141.685 31.7065H139.83V34.5104H139.827Z" fill="white"/>
<path d="M155.124 31.357C155.124 32.0142 155.036 32.6196 154.864 33.1756C154.692 33.7328 154.438 34.2102 154.104 34.6104C153.77 35.0106 153.36 35.3222 152.875 35.5451C152.39 35.7667 151.835 35.8794 151.212 35.8794C150.711 35.8794 150.267 35.8123 149.883 35.6793C149.499 35.5463 149.212 35.4184 149.023 35.2956V38.7656H147.468V27.2702C147.835 27.1803 148.295 27.0828 148.847 26.9776C149.398 26.8725 150.035 26.8193 150.76 26.8193C151.429 26.8193 152.031 26.9244 152.566 27.1359C153.101 27.3474 153.557 27.6476 153.936 28.0364C154.315 28.4252 154.608 28.9014 154.814 29.4624C155.021 30.0259 155.124 30.6566 155.124 31.357ZM153.503 31.357C153.503 30.3451 153.252 29.5662 152.75 29.0217C152.248 28.4771 151.58 28.2035 150.744 28.2035C150.275 28.2035 149.91 28.22 149.649 28.2529C149.387 28.2859 149.177 28.3264 149.022 28.3707V33.843C149.21 33.9988 149.484 34.1495 149.842 34.2938C150.198 34.4382 150.588 34.5104 151.011 34.5104C151.456 34.5104 151.839 34.4306 152.156 34.2685C152.474 34.1077 152.732 33.8848 152.933 33.6011C153.133 33.3161 153.279 32.9843 153.367 32.6006C153.457 32.2169 153.503 31.8028 153.503 31.357Z" fill="white"/>
<path d="M164.987 31.3405C164.987 32.0307 164.887 32.6526 164.687 33.2085C164.487 33.7658 164.204 34.2432 163.842 34.6434C163.48 35.0436 163.047 35.3526 162.546 35.5692C162.045 35.7857 161.498 35.8946 160.908 35.8946C160.317 35.8946 159.771 35.7857 159.27 35.5692C158.769 35.3526 158.336 35.0436 157.974 34.6434C157.611 34.2432 157.33 33.7658 157.129 33.2085C156.928 32.6526 156.828 32.0295 156.828 31.3405C156.828 30.6617 156.928 30.0412 157.129 29.4801C157.329 28.9191 157.61 28.4379 157.974 28.0364C158.335 27.6362 158.769 27.3272 159.27 27.1106C159.771 26.8941 160.317 26.7852 160.908 26.7852C161.498 26.7852 162.045 26.8941 162.546 27.1106C163.047 27.3272 163.479 27.6362 163.842 28.0364C164.203 28.4366 164.485 28.9178 164.687 29.4801C164.887 30.0424 164.987 30.6617 164.987 31.3405ZM163.365 31.3405C163.365 30.3616 163.146 29.5853 162.705 29.0128C162.264 28.4404 161.666 28.1529 160.908 28.1529C160.15 28.1529 159.552 28.4404 159.111 29.0128C158.67 29.5865 158.45 30.3628 158.45 31.3405C158.45 32.3182 158.67 33.0958 159.111 33.6682C159.552 34.2407 160.15 34.5282 160.908 34.5282C161.666 34.5282 162.264 34.2407 162.705 33.6682C163.146 33.0958 163.365 32.3195 163.365 31.3405Z" fill="white"/>
<path d="M170.204 28.3048C170.204 28.6708 170.195 29.0634 170.178 29.4813C170.16 29.898 170.13 30.3159 170.086 30.7326C170.041 31.1493 169.98 31.5608 169.902 31.9674C169.823 32.3739 169.723 32.7538 169.6 33.1097C169.477 33.4668 169.324 33.7999 169.14 34.1102C168.955 34.423 168.731 34.6978 168.462 34.9359C168.195 35.1765 167.883 35.3754 167.526 35.5375C167.168 35.6983 166.75 35.8009 166.272 35.8465L166.054 34.5446C166.601 34.4331 167.033 34.228 167.351 33.9278C167.668 33.6277 167.921 33.2604 168.111 32.826C168.278 32.4474 168.4 32.0206 168.479 31.5418C168.556 31.0631 168.612 30.5654 168.645 30.0474C168.678 29.5295 168.698 29.0102 168.703 28.4872C168.708 27.9642 168.711 27.469 168.711 27.0029H174.496V35.6793H172.941V28.3048H170.204Z" fill="white"/>
<path d="M184.849 31.3405C184.849 32.0307 184.749 32.6526 184.548 33.2085C184.348 33.7658 184.065 34.2432 183.703 34.6434C183.342 35.0436 182.908 35.3526 182.408 35.5692C181.906 35.7857 181.36 35.8946 180.769 35.8946C180.179 35.8946 179.632 35.7857 179.132 35.5692C178.63 35.3526 178.198 35.0436 177.835 34.6434C177.473 34.2432 177.191 33.7658 176.99 33.2085C176.79 32.6526 176.69 32.0295 176.69 31.3405C176.69 30.6617 176.79 30.0412 176.99 29.4801C177.19 28.9191 177.472 28.4379 177.835 28.0364C178.196 27.6362 178.63 27.3272 179.132 27.1106C179.632 26.8941 180.179 26.7852 180.769 26.7852C181.36 26.7852 181.906 26.8941 182.408 27.1106C182.908 27.3272 183.341 27.6362 183.703 28.0364C184.064 28.4366 184.347 28.9178 184.548 29.4801C184.749 30.0424 184.849 30.6617 184.849 31.3405ZM183.226 31.3405C183.226 30.3616 183.007 29.5853 182.566 29.0128C182.125 28.4404 181.527 28.1529 180.769 28.1529C180.011 28.1529 179.413 28.4404 178.972 29.0128C178.531 29.5865 178.312 30.3628 178.312 31.3405C178.312 32.3182 178.531 33.0958 178.972 33.6682C179.413 34.2407 180.011 34.5282 180.769 34.5282C181.527 34.5282 182.125 34.2407 182.566 33.6682C183.007 33.0958 183.226 32.3195 183.226 31.3405Z" fill="white"/>
<path d="M192.422 28.3048H188.594V35.6793H187.039V27.0029H192.422V28.3048Z" fill="white"/>
<path d="M201.701 31.3405C201.701 32.0307 201.601 32.6526 201.401 33.2085C201.201 33.7658 200.918 34.2432 200.556 34.6434C200.195 35.0436 199.761 35.3526 199.261 35.5692C198.759 35.7857 198.213 35.8946 197.622 35.8946C197.031 35.8946 196.485 35.7857 195.985 35.5692C195.483 35.3526 195.051 35.0436 194.688 34.6434C194.326 34.2432 194.044 33.7658 193.843 33.2085C193.643 32.6526 193.542 32.0295 193.542 31.3405C193.542 30.6617 193.643 30.0412 193.843 29.4801C194.043 28.9191 194.324 28.4379 194.688 28.0364C195.049 27.6362 195.483 27.3272 195.985 27.1106C196.485 26.8941 197.031 26.7852 197.622 26.7852C198.213 26.7852 198.759 26.8941 199.261 27.1106C199.761 27.3272 200.193 27.6362 200.556 28.0364C200.917 28.4366 201.2 28.9178 201.401 29.4801C201.6 30.0424 201.701 30.6617 201.701 31.3405ZM200.079 31.3405C200.079 30.3616 199.86 29.5853 199.419 29.0128C198.978 28.4404 198.38 28.1529 197.622 28.1529C196.864 28.1529 196.266 28.4404 195.825 29.0128C195.384 29.5865 195.165 30.3628 195.165 31.3405C195.165 32.3182 195.384 33.0958 195.825 33.6682C196.266 34.2407 196.864 34.5282 197.622 34.5282C198.38 34.5282 198.978 34.2407 199.419 33.6682C199.86 33.0958 200.079 32.3195 200.079 31.3405Z" fill="white"/>
<path d="M207.034 35.8288C206.377 35.8288 205.77 35.7984 205.212 35.7376C204.654 35.6768 204.215 35.6072 203.891 35.5286V27.0853C204.215 27.008 204.654 26.9384 205.212 26.8763C205.77 26.8156 206.377 26.7852 207.034 26.7852C207.491 26.7852 208.764 26.8244 209.2 26.9017C209.635 26.9789 210.019 27.1106 210.353 27.293C210.688 27.4766 210.958 27.7274 211.165 28.044C211.371 28.3606 211.474 28.7532 211.474 29.2205C211.474 29.6435 211.367 30.0044 211.156 30.3059C210.944 30.606 210.66 30.839 210.304 31.0062C210.783 31.1734 211.165 31.4203 211.448 31.7496C211.732 32.0776 211.874 32.5361 211.874 33.1262C211.874 33.6493 211.772 34.0824 211.565 34.4281C211.358 34.7726 211.075 35.0512 210.713 35.2627C210.351 35.4742 209.925 35.6211 209.435 35.7047C208.943 35.787 207.592 35.8288 207.034 35.8288ZM207.067 30.5566C207.369 30.5566 208.471 30.5376 208.722 30.4984C208.973 30.4591 209.19 30.3894 209.375 30.2894C209.559 30.1893 209.703 30.0564 209.81 29.8892C209.915 29.722 209.969 29.5105 209.969 29.2547C209.969 28.9888 209.902 28.7773 209.769 28.6215C209.635 28.4657 209.46 28.3467 209.243 28.2618C209.027 28.1782 207.953 28.1238 207.681 28.0959C207.407 28.0681 207.131 28.0541 206.853 28.0541C206.596 28.0541 206.337 28.0605 206.075 28.0719C205.813 28.0833 205.593 28.0947 205.415 28.1048V30.5566H207.067ZM205.412 34.5104C205.479 34.5218 205.573 34.5332 205.696 34.5434C205.819 34.5548 205.958 34.5636 206.114 34.5687C206.27 34.5738 206.435 34.5801 206.609 34.5851C206.781 34.5915 206.944 34.5927 207.102 34.5927C207.425 34.5927 208.561 34.5712 208.857 34.5269C209.152 34.4813 209.408 34.404 209.626 34.2926C209.844 34.1812 210.016 34.033 210.144 33.8506C210.272 33.667 210.337 33.4314 210.337 33.1414C210.337 32.8628 210.279 32.6336 210.162 32.4487C210.044 32.265 209.886 32.1181 209.686 32.0067C209.485 31.8952 209.248 31.818 208.975 31.7737C208.701 31.7281 207.582 31.7065 207.27 31.7065H205.415V34.5104H205.412Z" fill="white"/>
</g>
<defs>
<clipPath id="clip0">
<rect width="239" height="107" fill="white"/>
</clipPath>
</defs>
</svg>
