<svg width="193" height="86" viewBox="0 0 193 86" fill="none" xmlns="http://www.w3.org/2000/svg">
<g clip-path="url(#clip0)">
<path d="M157.977 1H50.3599C45.4537 1.00204 40.6703 2.64388 36.8121 5.62832C25.8289 2.03722 12.1666 6.54034 8.3155 20.9444C-0.283113 26.0084 -2.79147 40.3188 3.53417 48.015C3.47788 48.8548 3.45639 49.6976 3.49937 50.5414C3.89748 58.2448 8.37281 64.4661 16.1455 68.1814C14.1448 74.0311 14.9093 81.1685 18.178 86.3557C18.8616 87.4397 20.5339 87.0886 20.7181 85.8233C22.7874 71.6361 33.8002 70.5754 50.366 70.5754H157.976C177.287 70.5754 192.998 54.9692 192.998 35.7882C192.998 16.6072 177.288 1 157.977 1ZM157.977 67.8282H50.3599C47.4063 67.8282 44.3699 67.8302 41.3928 67.9971C41.4174 65.5094 40.9732 60.7895 37.725 57.0915C36.6371 55.8528 35.3251 54.8542 33.8197 54.0725C34.1799 52.9833 34.9853 51.1634 36.5235 50.3277C37.0741 50.0284 37.3801 49.4258 37.248 48.8161C37.0546 47.9255 36.0548 47.4583 35.2453 47.8868C32.958 49.0981 31.7984 51.4779 31.2612 53.0129C29.6718 52.5182 27.9095 52.2189 25.9804 52.1202C25.1873 52.0795 24.5159 52.7065 24.5159 53.4953C24.5159 54.2252 25.0941 54.8247 25.8279 54.8623C30.1764 55.0842 33.4686 56.4329 35.627 58.8799C38.384 62.0059 38.6603 66.2219 38.6184 68.2058C29.9676 69.0537 22.2286 71.8091 19.098 80.7695C19.0274 80.9721 18.7347 80.9752 18.6723 80.7706C17.4197 76.6105 17.5445 71.8254 19.1728 67.9992C19.4685 67.3029 19.1441 66.5008 18.4451 66.2026C10.9497 63.0044 6.62382 57.3928 6.26255 50.3999C5.8839 43.0966 10.1003 35.5154 16.515 31.965C22.3381 28.7404 29.0189 29.1811 35.4489 33.1753C36.0722 33.5621 36.8919 33.3911 37.3095 32.7906C37.7608 32.1422 37.5684 31.2515 36.896 30.8342C29.5848 26.2914 21.9165 25.8303 15.1682 29.5649C9.71141 32.587 5.74062 37.9512 4.19222 43.9364C0.880492 37.0758 3.45741 26.8481 10.0583 23.0657C10.5158 22.8041 10.8167 22.345 10.9436 21.8361C16.43 -0.284571 49.4572 3.80631 48.967 26.7647C48.8995 28.548 51.6995 28.604 51.7312 26.8288C51.853 17.0612 46.692 10.2332 39.8485 6.85996C42.9637 4.84862 46.6214 3.74523 50.367 3.74523H157.977C175.763 3.74523 190.234 18.1188 190.234 35.7862C190.234 53.4546 175.763 67.8282 157.977 67.8282Z" fill="url(#paint0_linear)"/>
<path d="M62.8061 38.3878H66.1884V53.31H62.8061V38.3878Z" fill="url(#paint1_linear)"/>
<path d="M68.8984 47.6475C68.8984 46.8292 69.0314 46.0576 69.2996 45.3329C69.5667 44.6081 69.9535 43.9771 70.4601 43.4376C70.9656 42.8991 71.5797 42.4726 72.3032 42.1561C73.0258 41.8405 73.8496 41.6827 74.7737 41.6827C75.3806 41.6827 75.9373 41.7367 76.4429 41.8446C76.9485 41.9515 77.4407 42.1062 77.9166 42.3077L77.2442 44.8697C76.9403 44.7547 76.6077 44.655 76.2474 44.5684C75.8851 44.4819 75.4809 44.4392 75.0337 44.4392C74.0799 44.4392 73.3676 44.7344 72.8978 45.3227C72.4281 45.911 72.1937 46.6867 72.1937 47.6486C72.1937 48.6675 72.4138 49.4573 72.8548 50.0172C73.2959 50.577 74.0655 50.8569 75.1636 50.8569C75.5536 50.8569 75.9731 50.8213 76.4214 50.75C76.8686 50.6778 77.2811 50.5628 77.6577 50.405L78.1131 53.0321C77.7375 53.1899 77.2678 53.3263 76.7039 53.4413C76.14 53.5564 75.5188 53.6134 74.8392 53.6134C73.7994 53.6134 72.9029 53.4586 72.1507 53.1502C71.3996 52.8418 70.7814 52.4214 70.2974 51.8911C69.8123 51.3608 69.4592 50.7317 69.2351 50.006C69.0099 49.2812 68.8984 48.4944 68.8984 47.6475Z" fill="url(#paint2_linear)"/>
<path d="M90.4042 47.6262C90.4042 48.5168 90.2742 49.3311 90.0142 50.0701C89.7543 50.8101 89.3777 51.4412 88.8875 51.9654C88.3962 52.4896 87.8068 52.8948 87.1201 53.1818C86.4334 53.4688 85.6638 53.6124 84.8113 53.6124C83.9731 53.6124 83.2107 53.4688 82.524 53.1818C81.8373 52.8948 81.2488 52.4896 80.7576 51.9654C80.2664 51.4412 79.8826 50.8101 79.6083 50.0701C79.334 49.3311 79.1969 48.5168 79.1969 47.6262C79.1969 46.7355 79.3381 45.9253 79.6196 45.1924C79.901 44.4596 80.2919 43.8356 80.7903 43.3185C81.2887 42.8014 81.8813 42.4004 82.568 42.1123C83.2547 41.8253 84.0028 41.6818 84.8113 41.6818C85.6351 41.6818 86.3904 41.8253 87.0771 42.1123C87.7638 42.3994 88.3522 42.8014 88.8445 43.3185C89.3357 43.8356 89.7195 44.4596 89.9938 45.1924C90.266 45.9253 90.4042 46.7355 90.4042 47.6262ZM87.1088 47.6262C87.1088 46.6358 86.9092 45.8571 86.5122 45.2891C86.1141 44.7222 85.5481 44.4382 84.8103 44.4382C84.0734 44.4382 83.5023 44.7222 83.0981 45.2891C82.6939 45.8561 82.4912 46.6348 82.4912 47.6262C82.4912 48.6166 82.6939 49.4024 83.0981 49.9846C83.5023 50.5658 84.0734 50.8559 84.8103 50.8559C85.5471 50.8559 86.1141 50.5658 86.5122 49.9846C86.9092 49.4024 87.1088 48.6166 87.1088 47.6262Z" fill="url(#paint3_linear)"/>
<path d="M92.8971 42.3719C93.4467 42.2141 94.1549 42.0676 95.0217 41.9301C95.8885 41.7937 96.7993 41.7266 97.7531 41.7266C98.7213 41.7266 99.5267 41.8528 100.17 42.1032C100.813 42.3546 101.323 42.7098 101.699 43.1689C102.075 43.628 102.342 44.1736 102.502 44.8046C102.66 45.4367 102.74 46.1401 102.74 46.9147V53.3101H99.5103V47.3035C99.5103 46.2694 99.3732 45.5375 99.0989 45.107C98.8236 44.6764 98.3109 44.4606 97.5597 44.4606C97.3284 44.4606 97.0828 44.4718 96.8229 44.4932C96.5629 44.5145 96.3316 44.54 96.129 44.5685V53.3111H92.8991V42.3719H92.8971Z" fill="url(#paint4_linear)"/>
<path d="M104.69 45.4296H110.977V48.3366H104.69V45.4296Z" fill="url(#paint5_linear)"/>
<path d="M119.302 47.3035C119.302 46.2693 119.169 45.5374 118.901 45.1069C118.634 44.6763 118.174 44.4605 117.524 44.4605C117.322 44.4605 117.113 44.4717 116.896 44.4931C116.679 44.5145 116.469 44.5399 116.268 44.5684V53.311H113.038V42.3718C113.312 42.3006 113.634 42.2252 114.002 42.1459C114.37 42.0665 114.761 41.9952 115.172 41.9301C115.585 41.8659 116.008 41.815 116.441 41.7794C116.874 41.7438 117.301 41.7255 117.721 41.7255C118.545 41.7255 119.213 41.8293 119.726 42.0369C120.239 42.2456 120.662 42.4929 120.995 42.78C121.457 42.4502 121.987 42.1917 122.588 42.0054C123.188 41.8181 123.74 41.7255 124.247 41.7255C125.158 41.7255 125.906 41.8517 126.49 42.1021C127.075 42.3525 127.541 42.7087 127.888 43.1678C128.235 43.6269 128.474 44.1725 128.604 44.8035C128.734 45.4357 128.798 46.139 128.798 46.9136V53.309H125.568V47.3035C125.568 46.2693 125.434 45.5374 125.167 45.1069C124.9 44.6763 124.44 44.4605 123.791 44.4605C123.618 44.4605 123.375 44.5033 123.064 44.5898C122.753 44.6763 122.497 44.7832 122.294 44.9125C122.396 45.2433 122.461 45.5904 122.49 45.9568C122.518 46.3233 122.533 46.7141 122.533 47.1304V53.31H119.302V47.3035Z" fill="url(#paint6_linear)"/>
<path d="M131.182 47.7341C131.182 46.7294 131.337 45.8489 131.647 45.0957C131.957 44.3415 132.366 43.7144 132.872 43.2116C133.378 42.7088 133.96 42.3291 134.617 42.0695C135.274 41.811 135.951 41.6827 136.644 41.6827C138.262 41.6827 139.542 42.1744 140.481 43.1577C141.421 44.1409 141.89 45.5884 141.89 47.4969C141.89 47.6842 141.883 47.8888 141.869 48.1107C141.855 48.3336 141.84 48.53 141.826 48.7021H134.498C134.57 49.3627 134.881 49.8859 135.431 50.2737C135.979 50.6615 136.717 50.8549 137.641 50.8549C138.234 50.8549 138.815 50.8009 139.386 50.693C139.957 50.5862 140.423 50.4528 140.784 50.2951L141.218 52.9008C141.044 52.9874 140.813 53.0739 140.524 53.1594C140.235 53.2449 139.913 53.3202 139.56 53.3854C139.206 53.4505 138.826 53.5034 138.422 53.5472C138.018 53.5899 137.613 53.6123 137.208 53.6123C136.182 53.6123 135.289 53.4617 134.531 53.1604C133.773 52.8591 133.144 52.4458 132.645 51.9216C132.147 51.3974 131.778 50.7765 131.54 50.0589C131.301 49.3413 131.182 48.5667 131.182 47.7341ZM138.77 46.5065C138.755 46.2337 138.708 45.968 138.629 45.7095C138.549 45.4509 138.426 45.2219 138.26 45.0204C138.094 44.8199 137.884 44.6539 137.632 44.5247C137.379 44.3954 137.065 44.3313 136.689 44.3313C136.327 44.3313 136.017 44.3923 135.757 44.5145C135.497 44.6366 135.28 44.7985 135.106 44.999C134.932 45.1995 134.799 45.4326 134.705 45.6983C134.611 45.964 134.542 46.2337 134.499 46.5055H138.77V46.5065Z" fill="url(#paint7_linear)"/>
<path d="M154.443 52.9446C154.154 53.0311 153.821 53.1136 153.446 53.192C153.069 53.2714 152.676 53.3385 152.264 53.3966C151.852 53.4536 151.433 53.5004 151.007 53.536C150.58 53.5716 150.172 53.59 149.782 53.59C148.842 53.59 148.004 53.4536 147.267 53.1808C146.53 52.908 145.908 52.5171 145.404 52.0072C144.897 51.4982 144.511 50.8804 144.243 50.1556C143.976 49.4309 143.842 48.6166 143.842 47.7117C143.842 46.7936 143.958 45.964 144.189 45.224C144.42 44.485 144.753 43.857 145.186 43.3399C145.62 42.8228 146.151 42.4289 146.779 42.1561C147.408 41.8833 148.127 41.7469 148.936 41.7469C149.384 41.7469 149.786 41.7896 150.139 41.8762C150.493 41.9627 150.851 42.0848 151.213 42.2426V37.1175L154.443 36.6005V52.9446ZM147.137 47.561C147.137 48.5514 147.361 49.3484 147.81 49.951C148.257 50.5536 148.922 50.8559 149.804 50.8559C150.094 50.8559 150.36 50.8457 150.607 50.8244C150.852 50.803 151.055 50.7775 151.214 50.749V44.9135C151.011 44.7843 150.748 44.6764 150.422 44.5909C150.097 44.5043 149.768 44.4616 149.436 44.4616C147.904 44.4606 147.137 45.4937 147.137 47.561Z" fill="url(#paint8_linear)"/>
<path d="M65.3257 25.8822C65.6051 26.0786 65.906 26.327 66.2304 26.6263C66.5548 26.9255 66.8721 27.2492 67.1832 27.5983C67.4933 27.9465 67.7839 28.3017 68.0541 28.6641C68.3243 29.0264 68.5535 29.3644 68.7428 29.6769H67.2569C67.0593 29.3725 66.827 29.0621 66.562 28.7445C66.2969 28.4279 66.0196 28.1215 65.732 27.8263C65.4444 27.5312 65.1517 27.2594 64.8549 27.009C64.5581 26.7586 64.2788 26.5479 64.0178 26.3789V29.6779H62.7621V22.7043H64.0178V25.6949C64.2337 25.4893 64.4804 25.2501 64.7608 24.9773C65.0391 24.7045 65.3206 24.4276 65.6041 24.1457C65.8875 23.8637 66.1506 23.596 66.3931 23.3415C66.6367 23.0871 66.8342 22.8743 66.9877 22.7043H68.445C68.2475 22.9191 68.0152 23.1624 67.7501 23.4352C67.4841 23.708 67.2108 23.9869 66.9263 24.2739C66.6428 24.56 66.3614 24.8429 66.083 25.1249C65.8036 25.4058 65.5508 25.6583 65.3257 25.8822Z" fill="url(#paint9_linear)"/>
<path d="M72.7382 23.7498C72.7382 24.0439 72.731 24.3595 72.7177 24.6954C72.7034 25.0303 72.6788 25.3662 72.643 25.701C72.6072 26.0359 72.5581 26.3667 72.4946 26.6935C72.4312 27.0202 72.3503 27.3256 72.251 27.6116C72.1518 27.8987 72.0279 28.1664 71.8796 28.4157C71.7301 28.6672 71.549 28.888 71.332 29.0794C71.1161 29.2728 70.8643 29.4326 70.5757 29.5629C70.2871 29.6922 69.9494 29.7746 69.5636 29.8113L69.3876 28.7649C69.8287 28.6753 70.1776 28.5104 70.4345 28.2692C70.6904 28.0279 70.895 27.7327 71.0486 27.3836C71.1836 27.0793 71.2819 26.7362 71.3453 26.3515C71.4078 25.9667 71.4528 25.5667 71.4794 25.1504C71.506 24.7351 71.5224 24.3167 71.5265 23.8963C71.5306 23.4759 71.5326 23.078 71.5326 22.7034H76.2044V29.6769H74.9487V23.7498H72.7382Z" fill="url(#paint10_linear)"/>
<path d="M77.5441 30.9777C77.6433 31.0224 77.7713 31.0652 77.9289 31.1049C78.0854 31.1446 78.241 31.1649 78.3945 31.1649C78.8888 31.1649 79.2757 31.055 79.555 30.8362C79.8344 30.6173 80.0862 30.2621 80.3113 29.7694C79.7433 28.6976 79.2153 27.5596 78.7251 26.3565C78.2338 25.1543 77.8265 23.9359 77.5031 22.7023H78.853C78.9523 23.1043 79.071 23.538 79.2112 24.0031C79.3504 24.4683 79.5059 24.9467 79.6768 25.4383C79.8477 25.93 80.0319 26.4216 80.2305 26.9132C80.428 27.4049 80.6347 27.8792 80.8517 28.3352C81.1935 27.3967 81.4903 26.4664 81.7431 25.5462C81.9948 24.6261 82.2343 23.6774 82.4584 22.7033H83.7541C83.4307 24.0174 83.0704 25.2806 82.6733 26.4918C82.2773 27.7031 81.8505 28.836 81.391 29.8916C81.2109 30.2936 81.0246 30.6407 80.8312 30.9308C80.6378 31.2219 80.4239 31.4601 80.1896 31.6484C79.9562 31.8367 79.6922 31.9752 79.4005 32.0637C79.1078 32.1533 78.7773 32.1981 78.4078 32.1981C78.3085 32.1981 78.2052 32.192 78.0977 32.1777C77.9892 32.1645 77.8838 32.1462 77.7805 32.1238C77.6771 32.1024 77.5819 32.077 77.497 32.0505C77.411 32.024 77.3506 32.0016 77.3148 31.9833L77.5441 30.9777Z" fill="url(#paint11_linear)"/>
<path d="M86.2113 23.5084C86.4896 23.2845 86.8161 23.1135 87.1896 22.9924C87.5632 22.8723 87.9204 22.8122 88.2622 22.8122C89.2702 22.8122 90.0337 23.1186 90.5505 23.7303C91.0683 24.3431 91.3273 25.1941 91.3273 26.2842C91.3273 26.7494 91.2648 27.1962 91.1379 27.6258C91.012 28.0543 90.8166 28.435 90.5505 28.7658C90.2854 29.0966 89.9498 29.3603 89.5445 29.5577C89.1402 29.7542 88.6582 29.8519 88.0994 29.8519C87.4608 29.8519 86.9297 29.7359 86.506 29.5038C86.0834 29.2707 85.7477 28.9541 85.5 28.551C85.2523 28.149 85.0794 27.6797 84.9801 27.1433C84.8819 26.6069 84.8317 26.0399 84.8317 25.4404C84.8317 24.6627 84.888 23.938 85.0006 23.2672C85.1132 22.5964 85.3178 22.0071 85.6146 21.4971C85.9114 20.9882 86.3238 20.5657 86.8509 20.2298C87.3769 19.895 88.0544 19.669 88.8823 19.553C89.1249 19.5173 89.3388 19.4888 89.524 19.4654C89.7082 19.443 89.8699 19.4227 90.0101 19.4054C90.1493 19.387 90.2783 19.3667 90.3949 19.3443C90.5116 19.3229 90.6334 19.2975 90.7593 19.271L90.8944 20.3968C90.8309 20.4151 90.7654 20.4283 90.6989 20.4375C90.6313 20.4467 90.5372 20.4599 90.4154 20.4772C90.2936 20.4955 90.1309 20.5179 89.9293 20.5444C89.7267 20.5708 89.4636 20.6024 89.1402 20.638C88.2489 20.7367 87.5652 21.0055 87.0883 21.4421C86.6114 21.8809 86.3187 22.5689 86.2113 23.5084ZM86.1304 25.6399C86.1304 26.0603 86.1591 26.4583 86.2184 26.8329C86.2768 27.2085 86.3801 27.5393 86.5285 27.8253C86.6769 28.1123 86.8765 28.3373 87.1293 28.5032C87.381 28.6691 87.7054 28.7516 88.1015 28.7516C88.4443 28.7516 88.736 28.6864 88.9796 28.5572C89.2231 28.4269 89.4207 28.2508 89.5731 28.0268C89.7267 27.8029 89.8392 27.5423 89.9109 27.2431C89.9835 26.9438 90.0193 26.6242 90.0193 26.2842C90.0193 25.9809 89.9897 25.6857 89.9313 25.3987C89.873 25.1126 89.7666 24.8582 89.6141 24.6352C89.4606 24.4113 89.2559 24.2322 89 24.0988C88.7432 23.9645 88.4218 23.8983 88.035 23.8983C87.6563 23.8983 87.294 23.9787 86.9481 24.1395C86.6012 24.3004 86.3341 24.4968 86.1448 24.7289C86.1355 24.8276 86.1314 24.9661 86.1314 25.1442C86.1304 25.3233 86.1304 25.4882 86.1304 25.6399Z" fill="url(#paint12_linear)"/>
<path d="M101.98 29.6769H100.724V26.5927H97.484V29.6769H96.2283V22.7034H97.484V25.5463H100.724V22.7034H101.98V29.6769Z" fill="url(#paint13_linear)"/>
<path d="M103.748 26.2027C103.748 25.5859 103.838 25.0474 104.017 24.5873C104.197 24.1262 104.436 23.7455 104.733 23.4412C105.029 23.1369 105.371 22.9099 105.759 22.7572C106.146 22.6045 106.542 22.5292 106.947 22.5292C107.892 22.5292 108.617 22.8213 109.121 23.4066C109.625 23.9929 109.877 24.8846 109.877 26.0816C109.877 26.1355 109.877 26.2048 109.877 26.2903C109.877 26.3747 109.872 26.4531 109.863 26.5244H105.057C105.111 27.2481 105.322 27.7988 105.692 28.1744C106.06 28.549 106.636 28.7373 107.42 28.7373C107.86 28.7373 108.233 28.6996 108.534 28.6233C108.835 28.5469 109.062 28.4736 109.215 28.4024L109.39 29.4488C109.238 29.5292 108.97 29.6147 108.588 29.7032C108.205 29.7928 107.77 29.8376 107.285 29.8376C106.673 29.8376 106.144 29.745 105.699 29.5628C105.254 29.3795 104.886 29.1271 104.599 28.8044C104.311 28.4828 104.097 28.1011 103.957 27.6583C103.818 27.2155 103.748 26.731 103.748 26.2027ZM108.568 25.5197C108.578 24.9558 108.435 24.4937 108.144 24.1323C107.851 23.77 107.449 23.5888 106.935 23.5888C106.647 23.5888 106.393 23.6448 106.173 23.7567C105.953 23.8687 105.765 24.0133 105.613 24.1924C105.459 24.3705 105.341 24.5772 105.255 24.8092C105.17 25.0423 105.113 25.2785 105.086 25.5197H108.568Z" fill="url(#paint14_linear)"/>
<path d="M114.225 29.7969C113.694 29.7969 113.203 29.7725 112.753 29.7236C112.303 29.6748 111.948 29.6188 111.687 29.5557V22.7694C111.948 22.7073 112.303 22.6514 112.753 22.6015C113.203 22.5526 113.694 22.5282 114.225 22.5282C114.593 22.5282 114.953 22.5598 115.306 22.6218C115.657 22.6839 115.967 22.7898 116.237 22.9364C116.507 23.084 116.725 23.2855 116.892 23.54C117.059 23.7944 117.142 24.11 117.142 24.4856C117.142 24.8256 117.056 25.1157 116.885 25.3579C116.714 25.5992 116.484 25.7864 116.197 25.9208C116.584 26.0552 116.892 26.2537 117.121 26.5183C117.35 26.7819 117.465 27.1504 117.465 27.6247C117.465 28.0451 117.382 28.3933 117.215 28.6711C117.048 28.948 116.819 29.1719 116.527 29.3419C116.235 29.5119 115.891 29.63 115.495 29.6972C115.098 29.7633 114.674 29.7969 114.225 29.7969ZM114.251 25.5595C114.495 25.5595 114.717 25.5442 114.92 25.5126C115.122 25.4811 115.297 25.4251 115.447 25.3447C115.595 25.2643 115.712 25.1574 115.798 25.023C115.883 24.8887 115.927 24.7187 115.927 24.5131C115.927 24.2993 115.872 24.1293 115.765 24.0041C115.657 23.8789 115.515 23.7833 115.34 23.7151C115.165 23.6479 114.967 23.6041 114.747 23.5817C114.526 23.5593 114.303 23.5481 114.078 23.5481C113.871 23.5481 113.662 23.5532 113.45 23.5624C113.238 23.5715 113.061 23.5807 112.917 23.5888V25.5595H114.251ZM112.915 28.7373C112.969 28.7465 113.045 28.7556 113.144 28.7638C113.243 28.7729 113.356 28.78 113.482 28.7841C113.608 28.7882 113.741 28.7933 113.881 28.7974C114.02 28.8024 114.152 28.8035 114.279 28.8035C114.54 28.8035 114.79 28.7862 115.028 28.7505C115.267 28.7139 115.473 28.6518 115.649 28.5622C115.825 28.4726 115.965 28.3536 116.068 28.207C116.171 28.0594 116.224 27.8701 116.224 27.637C116.224 27.413 116.176 27.2288 116.082 27.0802C115.987 26.9326 115.859 26.8145 115.697 26.7249C115.536 26.6354 115.344 26.5733 115.123 26.5376C114.902 26.501 114.667 26.4837 114.415 26.4837H112.917V28.7373H112.915Z" fill="url(#paint15_linear)"/>
<path d="M125.267 26.2027C125.267 26.731 125.197 27.2176 125.057 27.6644C124.918 28.1123 124.714 28.496 124.443 28.8177C124.174 29.1393 123.843 29.3897 123.452 29.5689C123.06 29.747 122.612 29.8376 122.108 29.8376C121.704 29.8376 121.346 29.7836 121.036 29.6768C120.725 29.5699 120.493 29.4671 120.341 29.3683V32.1573H119.085V22.918C119.382 22.8458 119.753 22.7674 120.198 22.6829C120.644 22.5984 121.158 22.5557 121.744 22.5557C122.284 22.5557 122.77 22.6401 123.202 22.8101C123.634 22.9801 124.002 23.2214 124.308 23.5338C124.614 23.8463 124.851 24.2291 125.018 24.68C125.184 25.1329 125.267 25.6398 125.267 26.2027ZM123.958 26.2027C123.958 25.3894 123.756 24.7634 123.35 24.3258C122.945 23.8881 122.406 23.6682 121.73 23.6682C121.352 23.6682 121.057 23.6814 120.846 23.7079C120.634 23.7344 120.465 23.7669 120.34 23.8026V28.2008C120.492 28.326 120.713 28.4472 121.002 28.5632C121.289 28.6792 121.605 28.7373 121.946 28.7373C122.306 28.7373 122.615 28.6731 122.87 28.5428C123.127 28.4136 123.336 28.2344 123.498 28.0064C123.659 27.7774 123.777 27.5107 123.849 27.2023C123.921 26.8939 123.958 26.561 123.958 26.2027Z" fill="url(#paint16_linear)"/>
<path d="M133.232 26.1895C133.232 26.7443 133.152 27.2441 132.99 27.6909C132.828 28.1388 132.6 28.5225 132.307 28.8442C132.016 29.1658 131.666 29.4142 131.261 29.5883C130.856 29.7623 130.415 29.8498 129.938 29.8498C129.461 29.8498 129.02 29.7623 128.616 29.5883C128.211 29.4142 127.862 29.1658 127.569 28.8442C127.276 28.5225 127.049 28.1388 126.886 27.6909C126.725 27.2441 126.644 26.7433 126.644 26.1895C126.644 25.6439 126.725 25.1452 126.886 24.6943C127.048 24.2433 127.275 23.8565 127.569 23.5339C127.861 23.2122 128.211 22.9639 128.616 22.7898C129.02 22.6157 129.461 22.5282 129.938 22.5282C130.415 22.5282 130.856 22.6157 131.261 22.7898C131.666 22.9639 132.015 23.2122 132.307 23.5339C132.599 23.8555 132.827 24.2423 132.99 24.6943C133.152 25.1462 133.232 25.6439 133.232 26.1895ZM131.922 26.1895C131.922 25.4027 131.745 24.7787 131.389 24.3187C131.033 23.8586 130.55 23.6275 129.938 23.6275C129.326 23.6275 128.843 23.8586 128.487 24.3187C128.131 24.7798 127.954 25.4037 127.954 26.1895C127.954 26.9753 128.131 27.6003 128.487 28.0604C128.843 28.5205 129.326 28.7516 129.938 28.7516C130.55 28.7516 131.033 28.5205 131.389 28.0604C131.745 27.6003 131.922 26.9764 131.922 26.1895Z" fill="url(#paint17_linear)"/>
<path d="M137.445 23.7498C137.445 24.0439 137.438 24.3595 137.424 24.6954C137.41 25.0303 137.385 25.3662 137.35 25.701C137.314 26.0359 137.265 26.3667 137.201 26.6935C137.138 27.0202 137.057 27.3256 136.958 27.6116C136.858 27.8987 136.734 28.1664 136.586 28.4157C136.437 28.6672 136.256 28.888 136.039 29.0794C135.823 29.2728 135.571 29.4326 135.282 29.5629C134.994 29.6922 134.656 29.7746 134.27 29.8113L134.094 28.7649C134.535 28.6753 134.884 28.5104 135.141 28.2692C135.397 28.0279 135.602 27.7327 135.755 27.3836C135.89 27.0793 135.988 26.7362 136.052 26.3515C136.114 25.9667 136.159 25.5667 136.186 25.1504C136.213 24.734 136.229 24.3167 136.233 23.8963C136.237 23.4759 136.239 23.078 136.239 22.7034H140.911V29.6769H139.655V23.7498H137.445Z" fill="url(#paint18_linear)"/>
<path d="M149.271 26.1895C149.271 26.7443 149.19 27.2441 149.029 27.6909C148.867 28.1388 148.639 28.5225 148.346 28.8442C148.054 29.1658 147.704 29.4142 147.3 29.5883C146.895 29.7623 146.454 29.8498 145.977 29.8498C145.5 29.8498 145.059 29.7623 144.655 29.5883C144.249 29.4142 143.9 29.1658 143.608 28.8442C143.315 28.5225 143.088 28.1388 142.925 27.6909C142.763 27.2441 142.682 26.7433 142.682 26.1895C142.682 25.6439 142.763 25.1452 142.925 24.6943C143.087 24.2433 143.314 23.8565 143.608 23.5339C143.899 23.2122 144.249 22.9639 144.655 22.7898C145.059 22.6157 145.5 22.5282 145.977 22.5282C146.454 22.5282 146.895 22.6157 147.3 22.7898C147.704 22.9639 148.053 23.2122 148.346 23.5339C148.638 23.8555 148.866 24.2423 149.029 24.6943C149.19 25.1462 149.271 25.6439 149.271 26.1895ZM147.961 26.1895C147.961 25.4027 147.784 24.7787 147.428 24.3187C147.072 23.8586 146.589 23.6275 145.977 23.6275C145.365 23.6275 144.882 23.8586 144.526 24.3187C144.169 24.7798 143.992 25.4037 143.992 26.1895C143.992 26.9753 144.169 27.6003 144.526 28.0604C144.882 28.5205 145.365 28.7516 145.977 28.7516C146.589 28.7516 147.072 28.5205 147.428 28.0604C147.784 27.6003 147.961 26.9764 147.961 26.1895Z" fill="url(#paint19_linear)"/>
<path d="M155.387 23.7498H152.295V29.6769H151.04V22.7034H155.387V23.7498Z" fill="url(#paint20_linear)"/>
<path d="M162.88 26.1895C162.88 26.7443 162.799 27.2441 162.638 27.6909C162.476 28.1388 162.248 28.5225 161.955 28.8442C161.664 29.1658 161.314 29.4142 160.909 29.5883C160.504 29.7623 160.063 29.8498 159.586 29.8498C159.109 29.8498 158.668 29.7623 158.264 29.5883C157.859 29.4142 157.51 29.1658 157.217 28.8442C156.924 28.5225 156.697 28.1388 156.534 27.6909C156.373 27.2441 156.292 26.7433 156.292 26.1895C156.292 25.6439 156.373 25.1452 156.534 24.6943C156.696 24.2433 156.923 23.8565 157.217 23.5339C157.509 23.2122 157.859 22.9639 158.264 22.7898C158.668 22.6157 159.109 22.5282 159.586 22.5282C160.063 22.5282 160.504 22.6157 160.909 22.7898C161.314 22.9639 161.662 23.2122 161.955 23.5339C162.247 23.8555 162.475 24.2423 162.638 24.6943C162.798 25.1462 162.88 25.6439 162.88 26.1895ZM161.57 26.1895C161.57 25.4027 161.393 24.7787 161.037 24.3187C160.681 23.8586 160.198 23.6275 159.586 23.6275C158.974 23.6275 158.491 23.8586 158.135 24.3187C157.779 24.7798 157.602 25.4037 157.602 26.1895C157.602 26.9753 157.779 27.6003 158.135 28.0604C158.491 28.5205 158.974 28.7516 159.586 28.7516C160.198 28.7516 160.681 28.5205 161.037 28.0604C161.393 27.6003 161.57 26.9764 161.57 26.1895Z" fill="url(#paint21_linear)"/>
<path d="M167.187 29.7969C166.656 29.7969 166.165 29.7725 165.715 29.7236C165.265 29.6748 164.91 29.6188 164.649 29.5557V22.7694C164.91 22.7073 165.265 22.6514 165.715 22.6015C166.165 22.5526 166.656 22.5282 167.187 22.5282C167.555 22.5282 168.584 22.5598 168.936 22.6218C169.287 22.6839 169.597 22.7898 169.867 22.9364C170.137 23.084 170.355 23.2855 170.522 23.54C170.689 23.7944 170.772 24.11 170.772 24.4856C170.772 24.8256 170.686 25.1157 170.515 25.3579C170.344 25.5992 170.115 25.7864 169.827 25.9208C170.214 26.0552 170.522 26.2537 170.751 26.5183C170.981 26.7819 171.095 27.1504 171.095 27.6247C171.095 28.0451 171.012 28.3933 170.845 28.6711C170.679 28.948 170.449 29.1719 170.158 29.3419C169.865 29.5119 169.521 29.63 169.125 29.6972C168.728 29.7633 167.637 29.7969 167.187 29.7969ZM167.213 25.5595C167.457 25.5595 168.347 25.5442 168.55 25.5126C168.753 25.4811 168.928 25.4251 169.077 25.3447C169.225 25.2643 169.342 25.1574 169.428 25.023C169.513 24.8887 169.557 24.7187 169.557 24.5131C169.557 24.2993 169.503 24.1293 169.395 24.0041C169.287 23.8789 169.146 23.7833 168.971 23.7151C168.796 23.6479 167.929 23.6041 167.709 23.5817C167.488 23.5593 167.265 23.5481 167.04 23.5481C166.833 23.5481 166.624 23.5532 166.412 23.5624C166.2 23.5715 166.023 23.5807 165.879 23.5888V25.5595H167.213ZM165.877 28.7373C165.931 28.7465 166.007 28.7556 166.106 28.7638C166.205 28.7729 166.318 28.78 166.444 28.7841C166.57 28.7882 166.703 28.7933 166.843 28.7974C166.982 28.8024 167.114 28.8035 167.241 28.8035C167.502 28.8035 168.42 28.7862 168.658 28.7505C168.897 28.7139 169.104 28.6518 169.28 28.5622C169.456 28.4726 169.595 28.3536 169.698 28.207C169.802 28.0594 169.854 27.8701 169.854 27.637C169.854 27.413 169.807 27.2288 169.713 27.0802C169.617 26.9326 169.489 26.8145 169.328 26.7249C169.166 26.6354 168.975 26.5733 168.754 26.5376C168.533 26.501 167.629 26.4837 167.377 26.4837H165.879V28.7373H165.877Z" fill="url(#paint22_linear)"/>
</g>
<defs>
<linearGradient id="paint0_linear" x1="3.39733" y1="39.5886" x2="178.193" y2="48.6838" gradientUnits="userSpaceOnUse">
<stop stop-color="#3CB9EF"/>
<stop offset="0.5056" stop-color="#1A76DD"/>
<stop offset="1" stop-color="#0050A9"/>
</linearGradient>
<linearGradient id="paint1_linear" x1="9.49419" y1="43.0183" x2="170.354" y2="51.3884" gradientUnits="userSpaceOnUse">
<stop stop-color="#3CB9EF"/>
<stop offset="0.5056" stop-color="#1A76DD"/>
<stop offset="1" stop-color="#0050A9"/>
</linearGradient>
<linearGradient id="paint2_linear" x1="9.42836" y1="44.2826" x2="170.288" y2="52.6527" gradientUnits="userSpaceOnUse">
<stop stop-color="#3CB9EF"/>
<stop offset="0.5056" stop-color="#1A76DD"/>
<stop offset="1" stop-color="#0050A9"/>
</linearGradient>
<linearGradient id="paint3_linear" x1="9.45517" y1="43.769" x2="170.315" y2="52.1391" gradientUnits="userSpaceOnUse">
<stop stop-color="#3CB9EF"/>
<stop offset="0.5056" stop-color="#1A76DD"/>
<stop offset="1" stop-color="#0050A9"/>
</linearGradient>
<linearGradient id="paint4_linear" x1="9.49029" y1="43.0933" x2="170.35" y2="51.4634" gradientUnits="userSpaceOnUse">
<stop stop-color="#3CB9EF"/>
<stop offset="0.5056" stop-color="#1A76DD"/>
<stop offset="1" stop-color="#0050A9"/>
</linearGradient>
<linearGradient id="paint5_linear" x1="9.55569" y1="41.8245" x2="170.417" y2="50.1947" gradientUnits="userSpaceOnUse">
<stop stop-color="#3CB9EF"/>
<stop offset="0.5056" stop-color="#1A76DD"/>
<stop offset="1" stop-color="#0050A9"/>
</linearGradient>
<linearGradient id="paint6_linear" x1="9.55259" y1="41.8971" x2="170.412" y2="50.2672" gradientUnits="userSpaceOnUse">
<stop stop-color="#3CB9EF"/>
<stop offset="0.5056" stop-color="#1A76DD"/>
<stop offset="1" stop-color="#0050A9"/>
</linearGradient>
<linearGradient id="paint7_linear" x1="9.59428" y1="41.0949" x2="170.454" y2="49.4649" gradientUnits="userSpaceOnUse">
<stop stop-color="#3CB9EF"/>
<stop offset="0.5056" stop-color="#1A76DD"/>
<stop offset="1" stop-color="#0050A9"/>
</linearGradient>
<linearGradient id="paint8_linear" x1="9.76694" y1="37.775" x2="170.627" y2="46.1451" gradientUnits="userSpaceOnUse">
<stop stop-color="#3CB9EF"/>
<stop offset="0.5056" stop-color="#1A76DD"/>
<stop offset="1" stop-color="#0050A9"/>
</linearGradient>
<linearGradient id="paint9_linear" x1="-0.961532" y1="22.7637" x2="187.863" y2="32.5889" gradientUnits="userSpaceOnUse">
<stop stop-color="#3CB9EF"/>
<stop offset="0.5056" stop-color="#1A76DD"/>
<stop offset="1" stop-color="#0050A9"/>
</linearGradient>
<linearGradient id="paint10_linear" x1="-0.945598" y1="22.4568" x2="187.879" y2="32.282" gradientUnits="userSpaceOnUse">
<stop stop-color="#3CB9EF"/>
<stop offset="0.5056" stop-color="#1A76DD"/>
<stop offset="1" stop-color="#0050A9"/>
</linearGradient>
<linearGradient id="paint11_linear" x1="-0.985667" y1="23.2277" x2="187.839" y2="33.0529" gradientUnits="userSpaceOnUse">
<stop stop-color="#3CB9EF"/>
<stop offset="0.5056" stop-color="#1A76DD"/>
<stop offset="1" stop-color="#0050A9"/>
</linearGradient>
<linearGradient id="paint12_linear" x1="-0.813578" y1="19.9187" x2="188.011" y2="29.7439" gradientUnits="userSpaceOnUse">
<stop stop-color="#3CB9EF"/>
<stop offset="0.5056" stop-color="#1A76DD"/>
<stop offset="1" stop-color="#0050A9"/>
</linearGradient>
<linearGradient id="paint13_linear" x1="-0.87235" y1="21.0439" x2="187.953" y2="30.8691" gradientUnits="userSpaceOnUse">
<stop stop-color="#3CB9EF"/>
<stop offset="0.5056" stop-color="#1A76DD"/>
<stop offset="1" stop-color="#0050A9"/>
</linearGradient>
<linearGradient id="paint14_linear" x1="-0.851177" y1="20.6269" x2="187.975" y2="30.4522" gradientUnits="userSpaceOnUse">
<stop stop-color="#3CB9EF"/>
<stop offset="0.5056" stop-color="#1A76DD"/>
<stop offset="1" stop-color="#0050A9"/>
</linearGradient>
<linearGradient id="paint15_linear" x1="-0.830952" y1="20.247" x2="187.994" y2="30.0723" gradientUnits="userSpaceOnUse">
<stop stop-color="#3CB9EF"/>
<stop offset="0.5056" stop-color="#1A76DD"/>
<stop offset="1" stop-color="#0050A9"/>
</linearGradient>
<linearGradient id="paint16_linear" x1="-0.8756" y1="21.1103" x2="187.949" y2="30.9355" gradientUnits="userSpaceOnUse">
<stop stop-color="#3CB9EF"/>
<stop offset="0.5056" stop-color="#1A76DD"/>
<stop offset="1" stop-color="#0050A9"/>
</linearGradient>
<linearGradient id="paint17_linear" x1="-0.789752" y1="19.4609" x2="188.035" y2="29.2861" gradientUnits="userSpaceOnUse">
<stop stop-color="#3CB9EF"/>
<stop offset="0.5056" stop-color="#1A76DD"/>
<stop offset="1" stop-color="#0050A9"/>
</linearGradient>
<linearGradient id="paint18_linear" x1="-0.772901" y1="19.1349" x2="188.052" y2="28.9601" gradientUnits="userSpaceOnUse">
<stop stop-color="#3CB9EF"/>
<stop offset="0.5056" stop-color="#1A76DD"/>
<stop offset="1" stop-color="#0050A9"/>
</linearGradient>
<linearGradient id="paint19_linear" x1="-0.746883" y1="18.6375" x2="188.078" y2="28.4627" gradientUnits="userSpaceOnUse">
<stop stop-color="#3CB9EF"/>
<stop offset="0.5056" stop-color="#1A76DD"/>
<stop offset="1" stop-color="#0050A9"/>
</linearGradient>
<linearGradient id="paint20_linear" x1="-0.727262" y1="18.2661" x2="188.097" y2="28.0913" gradientUnits="userSpaceOnUse">
<stop stop-color="#3CB9EF"/>
<stop offset="0.5056" stop-color="#1A76DD"/>
<stop offset="1" stop-color="#0050A9"/>
</linearGradient>
<linearGradient id="paint21_linear" x1="-0.710515" y1="17.9389" x2="188.114" y2="27.7641" gradientUnits="userSpaceOnUse">
<stop stop-color="#3CB9EF"/>
<stop offset="0.5056" stop-color="#1A76DD"/>
<stop offset="1" stop-color="#0050A9"/>
</linearGradient>
<linearGradient id="paint22_linear" x1="-18.9792" y1="16.5797" x2="190.756" y2="27.4929" gradientUnits="userSpaceOnUse">
<stop stop-color="#3CB9EF"/>
<stop offset="0.5056" stop-color="#1A76DD"/>
<stop offset="1" stop-color="#0050A9"/>
</linearGradient>
<clipPath id="clip0">
<rect width="193" height="86" fill="white"/>
</clipPath>
</defs>
</svg>
