<?xml version="1.0" encoding="UTF-8" standalone="no"?>
<svg
   xmlns:dc="http://purl.org/dc/elements/1.1/"
   xmlns:cc="http://creativecommons.org/ns#"
   xmlns:rdf="http://www.w3.org/1999/02/22-rdf-syntax-ns#"
   xmlns:svg="http://www.w3.org/2000/svg"
   xmlns="http://www.w3.org/2000/svg"
   xmlns:sodipodi="http://sodipodi.sourceforge.net/DTD/sodipodi-0.dtd"
   xmlns:inkscape="http://www.inkscape.org/namespaces/inkscape"
   inkscape:version="1.0 (1.0+r73+1)"
   sodipodi:docname="pause-audio.svg"
   viewBox="0 0 476 545.63391"
   height="545.63391"
   width="476"
   id="svg78"
   version="1.1">

  <g
     transform="translate(929.701,-172.33261)"
     id="g86"
     inkscape:label="Image"
     inkscape:groupmode="layer">
    <path
       id="path90"
       d="m -904.46653,717.15618 c -9.38531,-2.25046 -18.3361,-9.49804 -22.75833,-18.42772 l -2.47614,-5 v -248.5 -248.5 l 2.35458,-4.5 c 3.1746,-6.0672 9.64905,-12.65793 15.25676,-15.53077 8.3197,-4.26219 14.01683,-4.60519 70.88866,-4.26784 53.06945,0.3148 53.54578,0.33578 59.18826,2.60673 7.55753,3.04171 14.96202,10.12109 18.50436,17.69188 l 2.80738,6 v 247 247 l -2.81594,5.5 c -3.8471,7.51404 -9.77117,13.30146 -17.06663,16.67293 l -6.11743,2.82707 -57,0.16532 c -31.35,0.0909 -58.69449,-0.24099 -60.76553,-0.7376 z m 306.19488,-0.27916 c -10.5697,-2.88673 -19.06834,-10.43097 -23.17135,-20.56921 l -2.258,-5.57935 v -245 c 0,-238.37366 0.0514,-245.13523 1.90202,-250 3.79132,-9.9666 10.41037,-16.73992 20.59798,-21.07809 4.21004,-1.79275 7.89695,-1.93615 57.21828,-2.22546 30.73893,-0.18031 55.6587,0.0982 59.77099,0.66811 12.8973,1.78729 22.58399,8.72473 27.84055,19.93894 l 2.67018,5.6965 v 246.5 246.5 l -2.63517,5.62001 c -3.70612,7.90404 -8.99544,13.32654 -16.69983,17.12031 l -6.61977,3.25968 -57.02261,0.19844 c -42.99612,0.14962 -58.14692,-0.10863 -61.59327,-1.04988 z"
       style="fill:#0557B3" />
  </g>
</svg>
