<svg width="32" height="32" viewBox="0 0 32 32" fill="none" xmlns="http://www.w3.org/2000/svg">
<path d="M12.6667 20.9583C12.6667 21.7824 13.6074 22.2528 14.2667 21.7583L21.1 16.6333C21.6333 16.2333 21.6333 15.4333 21.1 15.0333L14.2667 9.90833C13.6074 9.41391 12.6667 9.88429 12.6667 10.7083V20.9583ZM15.8333 0C7.09333 0 0 7.09333 0 15.8333C0 24.5733 7.09333 31.6667 15.8333 31.6667C24.5733 31.6667 31.6667 24.5733 31.6667 15.8333C31.6667 7.09333 24.5733 0 15.8333 0ZM15.8333 28.5C8.85083 28.5 3.16667 22.8158 3.16667 15.8333C3.16667 8.85083 8.85083 3.16667 15.8333 3.16667C22.8158 3.16667 28.5 8.85083 28.5 15.8333C28.5 22.8158 22.8158 28.5 15.8333 28.5Z" fill="white"/>
</svg>
